<svg width="862" height="902" viewBox="0 0 862 902" fill="none" xmlns="http://www.w3.org/2000/svg">
<g clip-path="url(#clip0_2_318)">
<path d="M408.43 890.422C182.816 890.422 0.159912 691.07 0.159912 444.799C0.159912 192.545 192.908 -3.37754 415.8 -0.385808C635.637 2.60593 817.562 201.082 818.957 445.018C820.351 689.83 635.504 890.422 408.43 890.422V890.422ZM408.894 874.223C625.279 874.588 803.154 681.657 803.486 446.331C803.818 209.911 626.01 16.1052 409.027 16.4701C194.501 16.9079 18.1533 208.087 15.3646 438.305C12.5096 670.347 184.077 873.274 408.894 874.296V874.223Z" fill="#F2F6FF"/>
<path d="M637.563 359.134C618.241 412.474 602.439 467.42 570.104 513.61C563.929 522.512 555.364 528.349 546.135 533.238C521.901 546.227 498.064 560.091 475.822 577.02C447.271 598.765 421.842 623.501 409.359 663.853C385.324 597.159 333.668 567.826 282.144 539.587C258.043 526.379 241.111 507.699 228.828 482.379C210.436 444.508 195.298 405.25 180.226 360.155C231.882 405.323 290.51 425.463 343.03 458.299C375.564 478.657 398.802 505.948 405.641 547.54C405.907 549.145 406.836 550.678 407.567 552.21C407.766 552.575 408.43 552.648 409.359 553.086C412.878 551.626 411.75 547.613 412.347 544.767C420.049 508.064 439.237 481.211 468.85 462.312C502.247 440.932 537.769 424.295 572.295 405.469C595.468 392.846 618.507 379.784 637.563 359.134V359.134Z" fill="#F2F6FF"/>
<path d="M390.569 481.065C349.536 434.146 296.752 416.852 249.146 389.708C236.929 382.776 224.911 375.479 212.628 368.62C187.995 354.829 170.732 333.449 159.909 305.72C146.895 272.3 134.214 238.662 119.673 200.572C175.512 239.829 233.742 261.793 287.921 292.951C323.111 313.163 347.545 341.548 361.621 382.265C372.443 413.569 382.934 444.8 390.503 481.065H390.569Z" fill="#F2F6FF"/>
<path d="M428.083 477.563C447.802 402.404 460.617 323.306 537.703 287.697C574.752 270.622 610.473 250.191 646.991 231.657C663.125 223.484 678.263 213.341 696.854 200.645C679.126 245.521 667.374 288.354 646.592 327.027C634.176 350.158 614.257 363.658 593.409 375.333C565.124 391.167 536.242 405.761 507.758 421.157C479.341 436.554 450.458 451.221 428.083 477.636V477.563Z" fill="#F2F6FF"/>
<path d="M348.341 808.989C373.505 748.862 357.039 691.8 337.386 635.249C330.481 615.329 321.584 596.211 313.483 576.363C345.752 588.914 380.278 626.858 409.027 682.022C427.95 632.184 462.078 600.224 505.169 573.371C476.154 651.156 435.785 724.053 470.178 809.281C447.803 803.443 440.831 795.052 408.629 733.83C401.79 747.549 398.005 762.215 389.573 774.036C378.485 789.506 367.596 805.413 348.076 808.843L348.341 809.135V808.989Z" fill="#F2F6FF"/>
<path d="M181.023 360.447C180.691 359.936 180.226 359.572 180.226 359.134C180.226 358.769 180.824 358.404 181.156 358.112C181.421 358.55 181.886 358.915 181.886 359.353C181.886 359.717 181.355 360.082 181.023 360.447Z" fill="#F2F6FF"/>
<path d="M348.076 808.697C347.81 809.499 347.478 810.229 347.212 811.032C345.154 808.697 347.412 809.28 348.341 808.988L348.076 808.697V808.697Z" fill="#F2F6FF"/>
</g>
<defs>
<clipPath id="clip0_2_318">
<rect width="862" height="902" fill="white"/>
</clipPath>
</defs>
</svg>
